<?xml version="1.0" encoding="UTF-8" standalone="no"?>
<!-- Created with Keyshape -->
<svg xmlns="http://www.w3.org/2000/svg" shape-rendering="geometricPrecision" text-rendering="geometricPrecision" viewBox="0 0 300 700" style="white-space: pre;">
    <defs>
        <linearGradient id="Gradient-0" x1="150" y1="0" x2="150" y2="700" gradientUnits="userSpaceOnUse">
            <stop offset="0" stop-color="#ffb64f"/>
            <stop offset="1" stop-color="#00e5ff"/>
        </linearGradient>
    </defs>
    <rect width="300" height="700" fill="url(#Gradient-0)" stroke="none" rx="5" transform="translate(150,350) translate(-150,-350)"/>
    <path fill="#fffcf7" stroke="none" d="M5,0L46.5,0C49.2614,0,51.5,2.23858,51.5,5L51.5,54C51.5,56.7614,34.7614,71,32,71L5,71C2.23858,71,0,68.7614,0,66L0,5C0,2.23858,2.23858,0,5,0Z" transform="translate(87.0977,540.5) translate(-25.75,-35.5)"/>
    <path fill="#29aa2e" stroke="none" d="M5,0L46.5,0C49.2614,0,51.5,2.23858,51.5,5L51.5,54C51.5,56.7614,34.7614,71,32,71L5,71C2.23858,71,0,68.7614,0,66L0,5C0,2.23858,2.23858,0,5,0Z" transform="translate(232.759,541.5) translate(-25.75,-35.5)"/>
    <path fill="#ff0200" stroke="none" d="M-15.5081,-1.58C-15.5081,-0.98,-15.6981,-0.523333,-16.0781,-0.21C-16.4581,0.103333,-16.8881,0.26,-17.3681,0.26C-17.8481,0.26,-18.2781,0.103333,-18.6581,-0.21C-19.0381,-0.523333,-19.2281,-0.98,-19.2281,-1.58C-19.2281,-2.18,-19.0381,-2.63667,-18.6581,-2.95C-18.2781,-3.26333,-17.8481,-3.42,-17.3681,-3.42C-16.8881,-3.42,-16.4581,-3.26333,-16.0781,-2.95C-15.6981,-2.63667,-15.5081,-2.18,-15.5081,-1.58ZM-7.18188,-7.88C-7.44854,-7.94667,-7.76187,-8.01667,-8.12187,-8.09C-8.48187,-8.16333,-8.86854,-8.2,-9.28187,-8.2C-9.46854,-8.2,-9.69187,-8.18333,-9.95187,-8.15C-10.2119,-8.11667,-10.4085,-8.08,-10.5419,-8.04L-10.5419,0L-13.5219,0L-13.5219,-9.96C-12.9885,-10.1467,-12.3585,-10.3233,-11.6319,-10.49C-10.9052,-10.6567,-10.0952,-10.74,-9.20187,-10.74C-9.04187,-10.74,-8.84854,-10.73,-8.62187,-10.71C-8.39521,-10.69,-8.16854,-10.6633,-7.94187,-10.63C-7.71521,-10.5967,-7.48854,-10.5567,-7.26188,-10.51C-7.03521,-10.4633,-6.84188,-10.4067,-6.68188,-10.34ZM-1.2675,-2.08C-0.974167,-2.08,-0.694167,-2.08667,-0.4275,-2.1C-0.160834,-2.11333,0.0524999,-2.13333,0.2125,-2.16L0.2125,-4.42C0.0924999,-4.44667,-0.0875003,-4.47333,-0.3275,-4.5C-0.5675,-4.52667,-0.7875,-4.54,-0.9875,-4.54C-1.2675,-4.54,-1.53083,-4.52333,-1.7775,-4.49C-2.02417,-4.45667,-2.24083,-4.39333,-2.4275,-4.3C-2.61417,-4.20667,-2.76083,-4.08,-2.8675,-3.92C-2.97417,-3.76,-3.0275,-3.56,-3.0275,-3.32C-3.0275,-2.85333,-2.87083,-2.53,-2.5575,-2.35C-2.24417,-2.17,-1.81417,-2.08,-1.2675,-2.08ZM-1.5075,-10.8C-0.6275,-10.8,0.105833,-10.7,0.6925,-10.5C1.27917,-10.3,1.74917,-10.0133,2.1025,-9.64C2.45583,-9.26667,2.70583,-8.81333,2.8525,-8.28C2.99917,-7.74667,3.0725,-7.15333,3.0725,-6.5L3.0725,-0.3C2.64583,-0.206667,2.0525,-0.0966667,1.2925,0.03C0.5325,0.156667,-0.3875,0.22,-1.4675,0.22C-2.1475,0.22,-2.76417,0.16,-3.3175,0.04C-3.87083,-0.08,-4.3475,-0.276667,-4.7475,-0.55C-5.1475,-0.823333,-5.45417,-1.18,-5.6675,-1.62C-5.88083,-2.06,-5.9875,-2.6,-5.9875,-3.24C-5.9875,-3.85333,-5.86417,-4.37333,-5.6175,-4.8C-5.37083,-5.22667,-5.04083,-5.56667,-4.6275,-5.82C-4.21417,-6.07333,-3.74083,-6.25667,-3.2075,-6.37C-2.67417,-6.48333,-2.12083,-6.54,-1.5475,-6.54C-1.16083,-6.54,-0.8175,-6.52333,-0.5175,-6.49C-0.2175,-6.45667,0.0258333,-6.41333,0.2125,-6.36L0.2125,-6.64C0.2125,-7.14667,0.0591667,-7.55333,-0.2475,-7.86C-0.554167,-8.16667,-1.0875,-8.32,-1.8475,-8.32C-2.35417,-8.32,-2.85417,-8.28333,-3.3475,-8.21C-3.84083,-8.13667,-4.2675,-8.03333,-4.6275,-7.9L-5.0075,-10.3C-4.83417,-10.3533,-4.6175,-10.41,-4.3575,-10.47C-4.0975,-10.53,-3.81417,-10.5833,-3.5075,-10.63C-3.20083,-10.6767,-2.8775,-10.7167,-2.5375,-10.75C-2.1975,-10.7833,-1.85417,-10.8,-1.5075,-10.8ZM11.9562,-6.04C11.6896,-5.02667,11.4062,-4.02,11.1062,-3.02C10.8062,-2.02,10.4896,-1.01333,10.1562,0L7.83625,0C7.59625,-0.56,7.33625,-1.22667,7.05625,-2C6.77625,-2.77333,6.48625,-3.61667,6.18625,-4.53C5.88625,-5.44333,5.57958,-6.41,5.26625,-7.43C4.95292,-8.45,4.64958,-9.48,4.35625,-10.52L7.49625,-10.52C7.60292,-10.04,7.71958,-9.51667,7.84625,-8.95C7.97292,-8.38333,8.10625,-7.8,8.24625,-7.2C8.38625,-6.6,8.53292,-5.99667,8.68625,-5.39C8.83958,-4.78333,8.99625,-4.2,9.15625,-3.64C9.32958,-4.22667,9.49958,-4.82667,9.66625,-5.44C9.83292,-6.05333,9.99292,-6.65667,10.1462,-7.25C10.2996,-7.84333,10.4462,-8.41667,10.5863,-8.97C10.7262,-9.52333,10.8496,-10.04,10.9563,-10.52L13.1163,-10.52C13.2229,-10.04,13.3429,-9.52333,13.4762,-8.97C13.6096,-8.41667,13.7496,-7.84333,13.8962,-7.25C14.0429,-6.65667,14.1962,-6.05333,14.3562,-5.44C14.5163,-4.82667,14.6829,-4.22667,14.8563,-3.64C15.0162,-4.2,15.1762,-4.78333,15.3363,-5.39C15.4963,-5.99667,15.6463,-6.6,15.7863,-7.2C15.9263,-7.8,16.0596,-8.38333,16.1862,-8.95C16.3129,-9.51667,16.4296,-10.04,16.5363,-10.52L19.6362,-10.52C19.3429,-9.48,19.0396,-8.45,18.7262,-7.43C18.4129,-6.41,18.1062,-5.44333,17.8062,-4.53C17.5063,-3.61667,17.2129,-2.77333,16.9263,-2C16.6396,-1.22667,16.3762,-0.56,16.1362,0L13.8162,0C13.4829,-1.01333,13.1562,-2.02,12.8362,-3.02C12.5162,-4.02,12.2229,-5.02667,11.9562,-6.04Z" transform="translate(86.9391,546.007)"/>
    <text fill="#ff0000" font-size="37" font-family="Ubuntu" letter-spacing="0" word-spacing="0" stroke="none" font-weight="700" text-anchor="middle" transform="translate(151.633,53)" style="line-height: 16px;">Coming Soon...</text>
    <text fill="#ffffff" font-size="31" font-family="Ubuntu" letter-spacing="0" word-spacing="0" stroke="none" font-weight="700" text-anchor="middle" transform="translate(151.633,247)" style="line-height: 16px; white-space: pre;">XRD, FTIR &amp; NMR</text>
    <text fill="#ffffff" font-size="26" font-family="Ubuntu" letter-spacing="0" word-spacing="0" stroke="none" font-weight="700" text-anchor="middle" transform="translate(151.633,208)" style="line-height: 16px; white-space: pre;">Data Matching For</text>
    <text fill="#ffffff" font-size="28" font-family="Ubuntu" letter-spacing="0" word-spacing="0" stroke="none" font-weight="700" text-anchor="middle" transform="translate(149.336,438)" style="line-height: 16px; white-space: pre;">Your Personal</text>
    <text fill="#ffffff" font-size="28" font-family="Ubuntu" letter-spacing="0" word-spacing="0" stroke="none" font-weight="700" text-anchor="middle" transform="translate(153.168,472.388)" style="line-height: 16px; white-space: pre;">Scientific Profile</text>
    <text fill="#ffffff" font-size="25" font-family="Ubuntu" letter-spacing="0" word-spacing="0" stroke="none" font-weight="700" text-anchor="middle" transform="translate(151.633,679.275)" style="line-height: 20px; white-space: pre;">Excel File...</text>
    <text fill="#ffffff" font-size="25" font-family="Ubuntu" letter-spacing="0" word-spacing="0" stroke="none" font-weight="700" text-anchor="middle" transform="translate(153.168,617.225)" style="line-height: 20px; white-space: pre;">Instruments Scientific</text>
    <path d="M0,0L0,65" stroke="#ffffff" fill="none" stroke-linecap="square" stroke-width="4" transform="translate(85.5,78.5)"/>
    <path d="M0,0L-122,0" stroke="#ffffff" fill="none" stroke-linecap="square" stroke-width="4" transform="translate(207.5,143.5)"/>
    <g transform="translate(146.5,158.875) translate(-61,-8.125)">
        <path d="M0,0L122,0" stroke="#ff0000" fill="none" stroke-width="4" stroke-linecap="square" transform="translate(0,16.25)"/>
        <path d="M0,0L0,-11" stroke="#ff0000" fill="none" stroke-width="4" stroke-linecap="square" transform="translate(27.5,16.25)"/>
        <path d="M0,0L0,-5.5" stroke="#ff0000" fill="none" stroke-width="4" stroke-linecap="square" transform="translate(55.5,16.25)"/>
        <path d="M0,0L0,-13" stroke="#ff0000" fill="none" stroke-width="4" stroke-linecap="square" transform="translate(100.5,13)"/>
    </g>
    <path d="M0,0L-13.6506,-0.119742C-19.46,-52.2612,-24.87,-78.3826,-28.6798,-0.251577L-57.9771,-0.508571C-63.713,-14.2966,-69.0229,-15.7224,-73.7642,-0.647055L-86.9086,-0.762357C-93.2706,-61.5522,-97.9605,-39.7077,-102.307,-0.89743L-114,-1" stroke="#ffffff" fill="none" stroke-linecap="square" stroke-width="2" transform="translate(207.5,133.5)"/>
    <path fill="#ffffff" stroke="none" d="M0,0L30.4675,0L43.2445,9.81832L31.0719,19.2543L0,19.2543Z" transform="translate(146.628,541.5) translate(-16.6223,-12.3814)"/>
    <rect width="41.4771" height="41.4771" fill="#108933" rx="5" stroke="none" transform="translate(214.009,538.5) translate(-20.7385,-20.7385)"/>
    <path fill="#ffffff" stroke="none" d="M5.20162,0C4.48629,-1.43067,3.70313,-2.87983,2.85213,-4.3475C2.00112,-5.81517,1.02062,-7.31367,-0.0893745,-8.843C-0.434708,-8.399,-0.872541,-7.78233,-1.40288,-6.993C-1.93321,-6.20367,-2.46354,-5.365,-2.99387,-4.477C-3.52421,-3.589,-4.02371,-2.738,-4.49237,-1.924C-4.96104,-1.11,-5.30638,-0.468667,-5.52838,0L-12.1144,0C-11.029,-1.998,-9.76487,-4.09467,-8.32187,-6.29C-6.87887,-8.48533,-5.26937,-10.8163,-3.49337,-13.283L-11.7444,-25.641L-4.75137,-25.641L0.243626,-17.649L5.12762,-25.641L11.7136,-25.641L3.57362,-13.209C5.64562,-10.5203,7.38463,-8.03517,8.79062,-5.7535C10.1966,-3.47183,11.3066,-1.554,12.1206,0Z" transform="translate(214.009,552.007)"/>
    <rect width="117" height="123.904" fill="#ffffff" rx="5" stroke="none" transform="translate(151.633,341.952) translate(-58.5,-61.9519)"/>
    <ellipse rx="19.5" ry="19.5" fill="#cfcfcf" stroke="none" transform="translate(124.5,311.5)"/>
    <ellipse rx="8" ry="8" fill="#797979" stroke="none" transform="translate(124.5,304)"/>
    <path fill="#797979" stroke="none" d="M16.5,0C16.5,3.31371,9.6127,10,0.5,10C-8.6127,10,-16.5,3.31371,-16.5,0C-16.5,-3.31371,-8.6127,-8,0.5,-8C9.6127,-8,16.5,-3.31371,16.5,0Z" transform="translate(125,321) translate(-0.5,0)"/>
    <rect width="39" height="7.5" fill="#817d7d" rx="0" stroke="none" transform="translate(176.5,307.75) translate(-19.5,-3.75)"/>
    <rect width="85.664" height="7.5" fill="#817d7d" rx="0" stroke="none" transform="translate(129.836,350) translate(-19.5,-3.75)"/>
    <rect width="85.664" height="7.5" fill="#817d7d" rx="0" stroke="none" transform="translate(129.836,370) translate(-19.5,-3.75)"/>
    <rect width="85.664" height="7.5" fill="#817d7d" rx="0" stroke="none" transform="translate(129.836,390) translate(-19.5,-3.75)"/>
    <text fill="#ffffff" font-size="25" font-family="Ubuntu" letter-spacing="0" word-spacing="0" stroke="none" font-weight="700" text-anchor="middle" transform="translate(156.16,648.25)" style="line-height: 20px; white-space: pre;">File Conversion To</text>
</svg>
