<?xml version="1.0" encoding="UTF-8" standalone="no"?>
<!-- Created with Keyshape -->
<svg xmlns="http://www.w3.org/2000/svg" viewBox="0 0 200 200" text-rendering="geometricPrecision" shape-rendering="geometricPrecision" style="white-space: pre;">
    <defs>
        <linearGradient id="Gradient-0" x1="150" y1="0" x2="150" y2="198" gradientUnits="userSpaceOnUse">
            <stop offset="0" stop-color="#ffb64f"/>
            <stop offset="1" stop-color="#00e5ff"/>
        </linearGradient>
    </defs>
    <rect width="200" height="200" fill="url(#Gradient-0)" stroke="none" rx="5" transform="translate(150,350) translate(-150,-350)"/>
    <path d="M0,0L0,65" fill="none" stroke="#ffffff" stroke-linecap="square" stroke-width="4" transform="translate(20.4134,10.2671) scale(1.3047,1.3047)"/>
    <path d="M0,0L-122,0" fill="none" stroke="#ffffff" stroke-linecap="square" stroke-width="4" transform="translate(179.587,95.0725) scale(1.3047,1.3047)"/>
    <g transform="translate(100,115.132) scale(1.3047,1.3047) translate(-61,-8.125)">
        <path d="M0,0L122,0" stroke="#ff0000" fill="none" stroke-width="4" stroke-linecap="square" transform="translate(0,16.25)"/>
        <path d="M0,0L0,-11" stroke="#ff0000" fill="none" stroke-width="4" stroke-linecap="square" transform="translate(27.5,16.25)"/>
        <path d="M0,0L0,-5.5" stroke="#ff0000" fill="none" stroke-width="4" stroke-linecap="square" transform="translate(55.5,16.25)"/>
        <path d="M0,0L0,-13" stroke="#ff0000" fill="none" stroke-width="4" stroke-linecap="square" transform="translate(100.5,13)"/>
    </g>
    <path d="M0,0L-13.6506,-0.119742C-19.46,-52.2612,-24.87,-78.3826,-28.6798,-0.251577L-57.9771,-0.508571C-63.713,-14.2966,-69.0229,-15.7224,-73.7642,-0.647055L-86.9086,-0.762357C-93.2706,-61.5522,-97.9605,-39.7077,-102.307,-0.89743L-114,-1" stroke="#ffffff" fill="none" stroke-linecap="square" stroke-width="3" transform="translate(179.587,82.0255) scale(1.3047,1.3047)"/>
    <path fill="#ffffff" stroke="none" d="M-55.3463,0C-55.7329,-0.773333,-56.1562,-1.55667,-56.6162,-2.35C-57.0763,-3.14333,-57.6063,-3.95333,-58.2062,-4.78C-58.3929,-4.54,-58.6296,-4.20667,-58.9163,-3.78C-59.2029,-3.35333,-59.4896,-2.9,-59.7762,-2.42C-60.0629,-1.94,-60.3329,-1.48,-60.5863,-1.04C-60.8396,-0.6,-61.0263,-0.253333,-61.1463,0L-64.7063,0C-64.1196,-1.08,-63.4362,-2.21333,-62.6562,-3.4C-61.8763,-4.58667,-61.0063,-5.84667,-60.0462,-7.18L-64.5062,-13.86L-60.7262,-13.86L-58.0262,-9.54L-55.3862,-13.86L-51.8262,-13.86L-56.2262,-7.14C-55.1062,-5.68667,-54.1662,-4.34333,-53.4062,-3.11C-52.6463,-1.87667,-52.0463,-0.84,-51.6063,0ZM-45.7619,-14.02C-43.6819,-14.02,-42.0885,-13.65,-40.9819,-12.91C-39.8752,-12.17,-39.3219,-11.02,-39.3219,-9.46C-39.3219,-8.48667,-39.5452,-7.69667,-39.9919,-7.09C-40.4385,-6.48333,-41.0819,-6.00667,-41.9219,-5.66C-41.6419,-5.31333,-41.3485,-4.91667,-41.0419,-4.47C-40.7352,-4.02333,-40.4319,-3.55667,-40.1319,-3.07C-39.8319,-2.58333,-39.5419,-2.07667,-39.2619,-1.55C-38.9819,-1.02333,-38.7219,-0.506667,-38.4819,0L-41.9819,0C-42.2352,-0.453333,-42.4919,-0.913333,-42.7519,-1.38C-43.0119,-1.84667,-43.2785,-2.3,-43.5519,-2.74C-43.8252,-3.18,-44.0952,-3.59667,-44.3619,-3.99C-44.6285,-4.38333,-44.8952,-4.74,-45.1619,-5.06L-46.7019,-5.06L-46.7019,0L-49.8219,0L-49.8219,-13.66C-49.1419,-13.7933,-48.4385,-13.8867,-47.7119,-13.94C-46.9852,-13.9933,-46.3352,-14.02,-45.7619,-14.02ZM-45.5819,-11.36C-45.8085,-11.36,-46.0119,-11.3533,-46.1919,-11.34C-46.3719,-11.3267,-46.5419,-11.3133,-46.7019,-11.3L-46.7019,-7.54L-45.8219,-7.54C-44.6485,-7.54,-43.8085,-7.68667,-43.3019,-7.98C-42.7952,-8.27333,-42.5419,-8.77333,-42.5419,-9.48C-42.5419,-10.16,-42.7985,-10.6433,-43.3119,-10.93C-43.8252,-11.2167,-44.5819,-11.36,-45.5819,-11.36ZM-33.3737,-2.54C-33.2271,-2.52667,-33.0571,-2.51667,-32.8638,-2.51C-32.6704,-2.50333,-32.4404,-2.5,-32.1738,-2.5C-30.6138,-2.5,-29.4571,-2.89333,-28.7038,-3.68C-27.9504,-4.46667,-27.5737,-5.55333,-27.5737,-6.94C-27.5737,-8.39333,-27.9337,-9.49333,-28.6537,-10.24C-29.3737,-10.9867,-30.5137,-11.36,-32.0737,-11.36C-32.2871,-11.36,-32.5071,-11.3567,-32.7337,-11.35C-32.9604,-11.3433,-33.1737,-11.3267,-33.3737,-11.3ZM-24.3538,-6.94C-24.3538,-5.74,-24.5404,-4.69333,-24.9137,-3.8C-25.2871,-2.90667,-25.8171,-2.16667,-26.5037,-1.58C-27.1904,-0.993333,-28.0271,-0.553333,-29.0138,-0.26C-30.0004,0.0333333,-31.1071,0.18,-32.3338,0.18C-32.8938,0.18,-33.5471,0.156667,-34.2938,0.11C-35.0404,0.0633333,-35.7738,-0.0333333,-36.4938,-0.18L-36.4938,-13.68C-35.7738,-13.8133,-35.0238,-13.9033,-34.2438,-13.95C-33.4638,-13.9967,-32.7937,-14.02,-32.2337,-14.02C-31.0471,-14.02,-29.9704,-13.8867,-29.0037,-13.62C-28.0371,-13.3533,-27.2071,-12.9333,-26.5138,-12.36C-25.8204,-11.7867,-25.2871,-11.0533,-24.9137,-10.16C-24.5404,-9.26667,-24.3538,-8.19333,-24.3538,-6.94ZM-13.1425,-2.08C-12.8492,-2.08,-12.5692,-2.08667,-12.3025,-2.1C-12.0358,-2.11333,-11.8225,-2.13333,-11.6625,-2.16L-11.6625,-4.42C-11.7825,-4.44667,-11.9625,-4.47333,-12.2025,-4.5C-12.4425,-4.52667,-12.6625,-4.54,-12.8625,-4.54C-13.1425,-4.54,-13.4058,-4.52333,-13.6525,-4.49C-13.8992,-4.45667,-14.1158,-4.39333,-14.3025,-4.3C-14.4892,-4.20667,-14.6358,-4.08,-14.7425,-3.92C-14.8492,-3.76,-14.9025,-3.56,-14.9025,-3.32C-14.9025,-2.85333,-14.7458,-2.53,-14.4325,-2.35C-14.1192,-2.17,-13.6892,-2.08,-13.1425,-2.08ZM-13.3825,-10.8C-12.5025,-10.8,-11.7692,-10.7,-11.1825,-10.5C-10.5958,-10.3,-10.1258,-10.0133,-9.7725,-9.64C-9.41917,-9.26667,-9.16917,-8.81333,-9.0225,-8.28C-8.87583,-7.74667,-8.8025,-7.15333,-8.8025,-6.5L-8.8025,-0.3C-9.22917,-0.206667,-9.8225,-0.0966667,-10.5825,0.03C-11.3425,0.156667,-12.2625,0.22,-13.3425,0.22C-14.0225,0.22,-14.6392,0.16,-15.1925,0.04C-15.7458,-0.08,-16.2225,-0.276667,-16.6225,-0.55C-17.0225,-0.823333,-17.3292,-1.18,-17.5425,-1.62C-17.7558,-2.06,-17.8625,-2.6,-17.8625,-3.24C-17.8625,-3.85333,-17.7392,-4.37333,-17.4925,-4.8C-17.2458,-5.22667,-16.9158,-5.56667,-16.5025,-5.82C-16.0892,-6.07333,-15.6158,-6.25667,-15.0825,-6.37C-14.5492,-6.48333,-13.9958,-6.54,-13.4225,-6.54C-13.0358,-6.54,-12.6925,-6.52333,-12.3925,-6.49C-12.0925,-6.45667,-11.8492,-6.41333,-11.6625,-6.36L-11.6625,-6.64C-11.6625,-7.14667,-11.8158,-7.55333,-12.1225,-7.86C-12.4292,-8.16667,-12.9625,-8.32,-13.7225,-8.32C-14.2292,-8.32,-14.7292,-8.28333,-15.2225,-8.21C-15.7158,-8.13667,-16.1425,-8.03333,-16.5025,-7.9L-16.8825,-10.3C-16.7092,-10.3533,-16.4925,-10.41,-16.2325,-10.47C-15.9725,-10.53,-15.6892,-10.5833,-15.3825,-10.63C-15.0758,-10.6767,-14.7525,-10.7167,-14.4125,-10.75C-14.0725,-10.7833,-13.7292,-10.8,-13.3825,-10.8ZM-6.11562,-10.16C-5.60896,-10.3067,-4.95563,-10.4433,-4.15563,-10.57C-3.35563,-10.6967,-2.51562,-10.76,-1.63562,-10.76C-0.742291,-10.76,0.00104173,-10.6433,0.594375,-10.41C1.18771,-10.1767,1.65771,-9.84667,2.00438,-9.42C2.35104,-8.99333,2.59771,-8.48667,2.74438,-7.9C2.89104,-7.31333,2.96437,-6.66,2.96437,-5.94L2.96437,0L-0.015625,0L-0.015625,-5.58C-0.015625,-6.54,-0.142292,-7.22,-0.395625,-7.62C-0.648958,-8.02,-1.12229,-8.22,-1.81563,-8.22C-2.02896,-8.22,-2.25563,-8.21,-2.49563,-8.19C-2.73563,-8.17,-2.94896,-8.14667,-3.13562,-8.12L-3.13562,0L-6.11562,0ZM8.19,-5.34C8.19,-4.42,8.39667,-3.68,8.81,-3.12C9.22333,-2.56,9.83667,-2.28,10.65,-2.28C10.9167,-2.28,11.1633,-2.29,11.39,-2.31C11.6167,-2.33,11.8033,-2.35333,11.95,-2.38L11.95,-7.8C11.7633,-7.92,11.52,-8.02,11.22,-8.1C10.92,-8.18,10.6167,-8.22,10.31,-8.22C8.89667,-8.22,8.19,-7.26,8.19,-5.34ZM14.93,-0.34C14.6633,-0.26,14.3567,-0.183333,14.01,-0.11C13.6633,-0.0366667,13.3,0.0266667,12.92,0.08C12.54,0.133333,12.1533,0.176667,11.76,0.21C11.3667,0.243333,10.99,0.26,10.63,0.26C9.76333,0.26,8.99,0.133333,8.31,-0.12C7.63,-0.373333,7.05667,-0.736667,6.59,-1.21C6.12333,-1.68333,5.76667,-2.25667,5.52,-2.93C5.27333,-3.60333,5.15,-4.36,5.15,-5.2C5.15,-6.05333,5.25667,-6.82333,5.47,-7.51C5.68333,-8.19667,5.99,-8.78,6.39,-9.26C6.79,-9.74,7.28,-10.1067,7.86,-10.36C8.44,-10.6133,9.10333,-10.74,9.85,-10.74C10.2633,-10.74,10.6333,-10.7,10.96,-10.62C11.2867,-10.54,11.6167,-10.4267,11.95,-10.28L11.95,-15.04L14.93,-15.52ZM22.725,0L22.725,-13.86L32.005,-13.86L32.005,-11.24L25.845,-11.24L25.845,-8.34L31.325,-8.34L31.325,-5.72L25.845,-5.72L25.845,0ZM44.88,-13.86L44.88,-11.2L40.7,-11.2L40.7,0L37.58,0L37.58,-11.2L33.4,-11.2L33.4,-13.86ZM46.8656,-13.86L49.9856,-13.86L49.9856,0L46.8656,0ZM57.2381,-14.02C59.3181,-14.02,60.9115,-13.65,62.0181,-12.91C63.1248,-12.17,63.6781,-11.02,63.6781,-9.46C63.6781,-8.48667,63.4548,-7.69667,63.0081,-7.09C62.5615,-6.48333,61.9181,-6.00667,61.0781,-5.66C61.3581,-5.31333,61.6515,-4.91667,61.9581,-4.47C62.2648,-4.02333,62.5681,-3.55667,62.8681,-3.07C63.1681,-2.58333,63.4581,-2.07667,63.7381,-1.55C64.0181,-1.02333,64.2781,-0.506667,64.5181,0L61.0181,0C60.7648,-0.453333,60.5081,-0.913333,60.2481,-1.38C59.9881,-1.84667,59.7215,-2.3,59.4481,-2.74C59.1748,-3.18,58.9048,-3.59667,58.6381,-3.99C58.3715,-4.38333,58.1048,-4.74,57.8381,-5.06L56.2981,-5.06L56.2981,0L53.1781,0L53.1781,-13.66C53.8581,-13.7933,54.5615,-13.8867,55.2881,-13.94C56.0148,-13.9933,56.6648,-14.02,57.2381,-14.02ZM57.4181,-11.36C57.1915,-11.36,56.9881,-11.3533,56.8081,-11.34C56.6281,-11.3267,56.4581,-11.3133,56.2981,-11.3L56.2981,-7.54L57.1781,-7.54C58.3515,-7.54,59.1915,-7.68667,59.6981,-7.98C60.2048,-8.27333,60.4581,-8.77333,60.4581,-9.48C60.4581,-10.16,60.2015,-10.6433,59.6881,-10.93C59.1748,-11.2167,58.4181,-11.36,57.4181,-11.36ZM-41.3544,20C-41.501,19.52,-41.6644,19.0267,-41.8444,18.52C-42.0244,18.0133,-42.201,17.5067,-42.3744,17L-47.7744,17C-47.9477,17.5067,-48.1244,18.0133,-48.3044,18.52C-48.4844,19.0267,-48.6477,19.52,-48.7944,20L-52.0344,20C-51.5144,18.5067,-51.021,17.1267,-50.5544,15.86C-50.0877,14.5933,-49.631,13.4,-49.1844,12.28C-48.7377,11.16,-48.2977,10.0967,-47.8644,9.09C-47.431,8.08333,-46.981,7.1,-46.5144,6.14L-43.5344,6.14C-43.081,7.1,-42.6344,8.08333,-42.1944,9.09C-41.7544,10.0967,-41.311,11.16,-40.8644,12.28C-40.4177,13.4,-39.961,14.5933,-39.4944,15.86C-39.0277,17.1267,-38.5344,18.5067,-38.0144,20ZM-45.0944,9.28C-45.161,9.48,-45.261,9.75333,-45.3944,10.1C-45.5277,10.4467,-45.681,10.8467,-45.8544,11.3C-46.0277,11.7533,-46.2177,12.2533,-46.4244,12.8C-46.631,13.3467,-46.841,13.92,-47.0544,14.52L-43.1144,14.52C-43.3277,13.92,-43.5344,13.3467,-43.7344,12.8C-43.9344,12.2533,-44.1244,11.7533,-44.3044,11.3C-44.4844,10.8467,-44.641,10.4467,-44.7744,10.1C-44.9077,9.75333,-45.0144,9.48,-45.0944,9.28ZM-27.4481,19.64C-27.9548,19.7867,-28.6081,19.9233,-29.4081,20.05C-30.2081,20.1767,-31.0481,20.24,-31.9281,20.24C-32.8215,20.24,-33.5648,20.12,-34.1581,19.88C-34.7515,19.64,-35.2215,19.3033,-35.5681,18.87C-35.9148,18.4367,-36.1615,17.92,-36.3081,17.32C-36.4548,16.72,-36.5281,16.06,-36.5281,15.34L-36.5281,9.48L-33.5481,9.48L-33.5481,14.98C-33.5481,15.94,-33.4215,16.6333,-33.1681,17.06C-32.9148,17.4867,-32.4415,17.7,-31.7481,17.7C-31.5348,17.7,-31.3081,17.69,-31.0681,17.67C-30.8281,17.65,-30.6148,17.6267,-30.4281,17.6L-30.4281,9.48L-27.4481,9.48ZM-24.7625,6.86L-21.7825,6.38L-21.7825,9.48L-18.2025,9.48L-18.2025,11.96L-21.7825,11.96L-21.7825,15.66C-21.7825,16.2867,-21.6725,16.7867,-21.4525,17.16C-21.2325,17.5333,-20.7892,17.72,-20.1225,17.72C-19.8025,17.72,-19.4725,17.69,-19.1325,17.63C-18.7925,17.57,-18.4825,17.4867,-18.2025,17.38L-17.7825,19.7C-18.1425,19.8467,-18.5425,19.9733,-18.9825,20.08C-19.4225,20.1867,-19.9625,20.24,-20.6025,20.24C-21.4158,20.24,-22.0892,20.13,-22.6225,19.91C-23.1558,19.69,-23.5825,19.3833,-23.9025,18.99C-24.2225,18.5967,-24.4458,18.12,-24.5725,17.56C-24.6992,17,-24.7625,16.38,-24.7625,15.7ZM-6.35375,14.72C-6.35375,15.5467,-6.47375,16.3033,-6.71375,16.99C-6.95375,17.6767,-7.30042,18.2633,-7.75375,18.75C-8.20708,19.2367,-8.75042,19.6133,-9.38375,19.88C-10.0171,20.1467,-10.7271,20.28,-11.5138,20.28C-12.2871,20.28,-12.9904,20.1467,-13.6237,19.88C-14.2571,19.6133,-14.8004,19.2367,-15.2537,18.75C-15.7071,18.2633,-16.0604,17.6767,-16.3137,16.99C-16.5671,16.3033,-16.6938,15.5467,-16.6938,14.72C-16.6938,13.8933,-16.5637,13.14,-16.3037,12.46C-16.0437,11.78,-15.6837,11.2,-15.2238,10.72C-14.7638,10.24,-14.2171,9.86667,-13.5837,9.6C-12.9504,9.33333,-12.2604,9.2,-11.5138,9.2C-10.7537,9.2,-10.0571,9.33333,-9.42375,9.6C-8.79042,9.86667,-8.24708,10.24,-7.79375,10.72C-7.34042,11.2,-6.98708,11.78,-6.73375,12.46C-6.48042,13.14,-6.35375,13.8933,-6.35375,14.72ZM-9.39375,14.72C-9.39375,13.8,-9.57708,13.0767,-9.94375,12.55C-10.3104,12.0233,-10.8337,11.76,-11.5138,11.76C-12.1938,11.76,-12.7204,12.0233,-13.0938,12.55C-13.4671,13.0767,-13.6537,13.8,-13.6537,14.72C-13.6537,15.64,-13.4671,16.37,-13.0938,16.91C-12.7204,17.45,-12.1938,17.72,-11.5138,17.72C-10.8337,17.72,-10.3104,17.45,-9.94375,16.91C-9.57708,16.37,-9.39375,15.64,-9.39375,14.72ZM1.71125,14.42C1.71125,13.46,1.58792,12.78,1.34125,12.38C1.09458,11.98,0.67125,11.78,0.07125,11.78C-0.115417,11.78,-0.30875,11.79,-0.50875,11.81C-0.70875,11.83,-0.902083,11.8533,-1.08875,11.88L-1.08875,20L-4.06875,20L-4.06875,9.84C-3.81542,9.77333,-3.51875,9.70333,-3.17875,9.63C-2.83875,9.55667,-2.47875,9.49,-2.09875,9.43C-1.71875,9.37,-1.32875,9.32333,-0.92875,9.29C-0.52875,9.25667,-0.135417,9.24,0.25125,9.24C1.01125,9.24,1.62792,9.33667,2.10125,9.53C2.57458,9.72333,2.96458,9.95333,3.27125,10.22C3.69792,9.91333,4.18792,9.67333,4.74125,9.5C5.29458,9.32667,5.80458,9.24,6.27125,9.24C7.11125,9.24,7.80125,9.35667,8.34125,9.59C8.88125,9.82333,9.31125,10.1533,9.63125,10.58C9.95125,11.0067,10.1713,11.5133,10.2913,12.1C10.4112,12.6867,10.4712,13.34,10.4712,14.06L10.4712,20L7.49125,20L7.49125,14.42C7.49125,13.46,7.36792,12.78,7.12125,12.38C6.87458,11.98,6.45125,11.78,5.85125,11.78C5.69125,11.78,5.46792,11.82,5.18125,11.9C4.89458,11.98,4.65792,12.08,4.47125,12.2C4.56458,12.5067,4.62458,12.83,4.65125,13.17C4.67792,13.51,4.69125,13.8733,4.69125,14.26L4.69125,20L1.71125,20ZM17.1856,17.92C17.479,17.92,17.759,17.9133,18.0256,17.9C18.2923,17.8867,18.5056,17.8667,18.6656,17.84L18.6656,15.58C18.5456,15.5533,18.3656,15.5267,18.1256,15.5C17.8856,15.4733,17.6656,15.46,17.4656,15.46C17.1856,15.46,16.9223,15.4767,16.6756,15.51C16.429,15.5433,16.2123,15.6067,16.0256,15.7C15.839,15.7933,15.6923,15.92,15.5856,16.08C15.479,16.24,15.4256,16.44,15.4256,16.68C15.4256,17.1467,15.5823,17.47,15.8956,17.65C16.209,17.83,16.639,17.92,17.1856,17.92ZM16.9456,9.2C17.8256,9.2,18.559,9.3,19.1456,9.5C19.7323,9.7,20.2023,9.98667,20.5556,10.36C20.909,10.7333,21.159,11.1867,21.3056,11.72C21.4523,12.2533,21.5256,12.8467,21.5256,13.5L21.5256,19.7C21.099,19.7933,20.5056,19.9033,19.7456,20.03C18.9856,20.1567,18.0656,20.22,16.9856,20.22C16.3056,20.22,15.689,20.16,15.1356,20.04C14.5823,19.92,14.1056,19.7233,13.7056,19.45C13.3056,19.1767,12.999,18.82,12.7856,18.38C12.5723,17.94,12.4656,17.4,12.4656,16.76C12.4656,16.1467,12.589,15.6267,12.8356,15.2C13.0823,14.7733,13.4123,14.4333,13.8256,14.18C14.239,13.9267,14.7123,13.7433,15.2456,13.63C15.779,13.5167,16.3323,13.46,16.9056,13.46C17.2923,13.46,17.6356,13.4767,17.9356,13.51C18.2356,13.5433,18.479,13.5867,18.6656,13.64L18.6656,13.36C18.6656,12.8533,18.5123,12.4467,18.2056,12.14C17.899,11.8333,17.3656,11.68,16.6056,11.68C16.099,11.68,15.599,11.7167,15.1056,11.79C14.6123,11.8633,14.1856,11.9667,13.8256,12.1L13.4456,9.7C13.619,9.64667,13.8356,9.59,14.0956,9.53C14.3556,9.47,14.639,9.41667,14.9456,9.37C15.2523,9.32333,15.5756,9.28333,15.9156,9.25C16.2556,9.21667,16.599,9.2,16.9456,9.2ZM24.1125,6.86L27.0925,6.38L27.0925,9.48L30.6725,9.48L30.6725,11.96L27.0925,11.96L27.0925,15.66C27.0925,16.2867,27.2025,16.7867,27.4225,17.16C27.6425,17.5333,28.0858,17.72,28.7525,17.72C29.0725,17.72,29.4025,17.69,29.7425,17.63C30.0825,17.57,30.3925,17.4867,30.6725,17.38L31.0925,19.7C30.7325,19.8467,30.3325,19.9733,29.8925,20.08C29.4525,20.1867,28.9125,20.24,28.2725,20.24C27.4592,20.24,26.7858,20.13,26.2525,19.91C25.7192,19.69,25.2925,19.3833,24.9725,18.99C24.6525,18.5967,24.4292,18.12,24.3025,17.56C24.1758,17,24.1125,16.38,24.1125,15.7ZM36.0675,20L33.0875,20L33.0875,9.48L36.0675,9.48ZM36.3475,6.44C36.3475,6.98667,36.1708,7.41667,35.8175,7.73C35.4642,8.04333,35.0475,8.2,34.5675,8.2C34.0875,8.2,33.6708,8.04333,33.3175,7.73C32.9642,7.41667,32.7875,6.98667,32.7875,6.44C32.7875,5.89333,32.9642,5.46333,33.3175,5.15C33.6708,4.83667,34.0875,4.68,34.5675,4.68C35.0475,4.68,35.4642,4.83667,35.8175,5.15C36.1708,5.46333,36.3475,5.89333,36.3475,6.44ZM38.3531,14.74C38.3531,13.98,38.4765,13.2633,38.7231,12.59C38.9698,11.9167,39.3265,11.33,39.7931,10.83C40.2598,10.33,40.8265,9.93333,41.4931,9.64C42.1598,9.34667,42.9198,9.2,43.7731,9.2C44.3331,9.2,44.8465,9.25,45.3131,9.35C45.7798,9.45,46.2331,9.59333,46.6731,9.78L46.0531,12.16C45.7731,12.0533,45.4665,11.96,45.1331,11.88C44.7998,11.8,44.4265,11.76,44.0131,11.76C43.1331,11.76,42.4765,12.0333,42.0431,12.58C41.6098,13.1267,41.3931,13.8467,41.3931,14.74C41.3931,15.6867,41.5965,16.42,42.0031,16.94C42.4098,17.46,43.1198,17.72,44.1331,17.72C44.4931,17.72,44.8798,17.6867,45.2931,17.62C45.7065,17.5533,46.0865,17.4467,46.4331,17.3L46.8531,19.74C46.5065,19.8867,46.0731,20.0133,45.5531,20.12C45.0331,20.2267,44.4598,20.28,43.8331,20.28C42.8731,20.28,42.0465,20.1367,41.3531,19.85C40.6598,19.5633,40.0898,19.1733,39.6431,18.68C39.1965,18.1867,38.8698,17.6033,38.6631,16.93C38.4565,16.2567,38.3531,15.5267,38.3531,14.74ZM-64.6316,37.46C-64.4849,37.4733,-64.3149,37.4833,-64.1216,37.49C-63.9282,37.4967,-63.6982,37.5,-63.4316,37.5C-61.8716,37.5,-60.7149,37.1067,-59.9616,36.32C-59.2082,35.5333,-58.8316,34.4467,-58.8316,33.06C-58.8316,31.6067,-59.1916,30.5067,-59.9116,29.76C-60.6316,29.0133,-61.7716,28.64,-63.3316,28.64C-63.5449,28.64,-63.7649,28.6433,-63.9916,28.65C-64.2182,28.6567,-64.4316,28.6733,-64.6316,28.7ZM-55.6116,33.06C-55.6116,34.26,-55.7982,35.3067,-56.1716,36.2C-56.5449,37.0933,-57.0749,37.8333,-57.7616,38.42C-58.4482,39.0067,-59.2849,39.4467,-60.2716,39.74C-61.2582,40.0333,-62.3649,40.18,-63.5916,40.18C-64.1516,40.18,-64.8049,40.1567,-65.5516,40.11C-66.2982,40.0633,-67.0316,39.9667,-67.7516,39.82L-67.7516,26.32C-67.0316,26.1867,-66.2816,26.0967,-65.5016,26.05C-64.7216,26.0033,-64.0516,25.98,-63.4916,25.98C-62.3049,25.98,-61.2282,26.1133,-60.2616,26.38C-59.2949,26.6467,-58.4649,27.0667,-57.7716,27.64C-57.0782,28.2133,-56.5449,28.9467,-56.1716,29.84C-55.7982,30.7333,-55.6116,31.8067,-55.6116,33.06ZM-49.1972,37.92C-48.9039,37.92,-48.6239,37.9133,-48.3572,37.9C-48.0905,37.8867,-47.8772,37.8667,-47.7172,37.84L-47.7172,35.58C-47.8372,35.5533,-48.0172,35.5267,-48.2572,35.5C-48.4972,35.4733,-48.7172,35.46,-48.9172,35.46C-49.1972,35.46,-49.4605,35.4767,-49.7072,35.51C-49.9539,35.5433,-50.1705,35.6067,-50.3572,35.7C-50.5439,35.7933,-50.6905,35.92,-50.7972,36.08C-50.9039,36.24,-50.9572,36.44,-50.9572,36.68C-50.9572,37.1467,-50.8005,37.47,-50.4872,37.65C-50.1739,37.83,-49.7439,37.92,-49.1972,37.92ZM-49.4372,29.2C-48.5572,29.2,-47.8239,29.3,-47.2372,29.5C-46.6505,29.7,-46.1805,29.9867,-45.8272,30.36C-45.4739,30.7333,-45.2239,31.1867,-45.0772,31.72C-44.9305,32.2533,-44.8572,32.8467,-44.8572,33.5L-44.8572,39.7C-45.2839,39.7933,-45.8772,39.9033,-46.6372,40.03C-47.3972,40.1567,-48.3172,40.22,-49.3972,40.22C-50.0772,40.22,-50.6939,40.16,-51.2472,40.04C-51.8005,39.92,-52.2772,39.7233,-52.6772,39.45C-53.0772,39.1767,-53.3839,38.82,-53.5972,38.38C-53.8105,37.94,-53.9172,37.4,-53.9172,36.76C-53.9172,36.1467,-53.7939,35.6267,-53.5472,35.2C-53.3005,34.7733,-52.9705,34.4333,-52.5572,34.18C-52.1439,33.9267,-51.6705,33.7433,-51.1372,33.63C-50.6039,33.5167,-50.0505,33.46,-49.4772,33.46C-49.0905,33.46,-48.7472,33.4767,-48.4472,33.51C-48.1472,33.5433,-47.9039,33.5867,-47.7172,33.64L-47.7172,33.36C-47.7172,32.8533,-47.8705,32.4467,-48.1772,32.14C-48.4839,31.8333,-49.0172,31.68,-49.7772,31.68C-50.2839,31.68,-50.7839,31.7167,-51.2772,31.79C-51.7705,31.8633,-52.1972,31.9667,-52.5572,32.1L-52.9372,29.7C-52.7639,29.6467,-52.5472,29.59,-52.2872,29.53C-52.0272,29.47,-51.7439,29.4167,-51.4372,29.37C-51.1305,29.3233,-50.8072,29.2833,-50.4672,29.25C-50.1272,29.2167,-49.7839,29.2,-49.4372,29.2ZM-42.2703,26.86L-39.2903,26.38L-39.2903,29.48L-35.7103,29.48L-35.7103,31.96L-39.2903,31.96L-39.2903,35.66C-39.2903,36.2867,-39.1803,36.7867,-38.9603,37.16C-38.7403,37.5333,-38.297,37.72,-37.6303,37.72C-37.3103,37.72,-36.9803,37.69,-36.6403,37.63C-36.3003,37.57,-35.9903,37.4867,-35.7103,37.38L-35.2903,39.7C-35.6503,39.8467,-36.0503,39.9733,-36.4903,40.08C-36.9303,40.1867,-37.4703,40.24,-38.1103,40.24C-38.9236,40.24,-39.597,40.13,-40.1303,39.91C-40.6636,39.69,-41.0903,39.3833,-41.4103,38.99C-41.7303,38.5967,-41.9536,38.12,-42.0803,37.56C-42.207,37,-42.2703,36.38,-42.2703,35.7ZM-29.6816,37.92C-29.3882,37.92,-29.1082,37.9133,-28.8416,37.9C-28.5749,37.8867,-28.3616,37.8667,-28.2016,37.84L-28.2016,35.58C-28.3216,35.5533,-28.5016,35.5267,-28.7416,35.5C-28.9816,35.4733,-29.2016,35.46,-29.4016,35.46C-29.6816,35.46,-29.9449,35.4767,-30.1916,35.51C-30.4382,35.5433,-30.6549,35.6067,-30.8416,35.7C-31.0282,35.7933,-31.1749,35.92,-31.2816,36.08C-31.3882,36.24,-31.4416,36.44,-31.4416,36.68C-31.4416,37.1467,-31.2849,37.47,-30.9716,37.65C-30.6582,37.83,-30.2282,37.92,-29.6816,37.92ZM-29.9216,29.2C-29.0416,29.2,-28.3082,29.3,-27.7216,29.5C-27.1349,29.7,-26.6649,29.9867,-26.3116,30.36C-25.9582,30.7333,-25.7082,31.1867,-25.5616,31.72C-25.4149,32.2533,-25.3416,32.8467,-25.3416,33.5L-25.3416,39.7C-25.7682,39.7933,-26.3616,39.9033,-27.1216,40.03C-27.8816,40.1567,-28.8016,40.22,-29.8816,40.22C-30.5616,40.22,-31.1782,40.16,-31.7316,40.04C-32.2849,39.92,-32.7616,39.7233,-33.1616,39.45C-33.5616,39.1767,-33.8682,38.82,-34.0816,38.38C-34.2949,37.94,-34.4016,37.4,-34.4016,36.76C-34.4016,36.1467,-34.2782,35.6267,-34.0316,35.2C-33.7849,34.7733,-33.4549,34.4333,-33.0416,34.18C-32.6282,33.9267,-32.1549,33.7433,-31.6216,33.63C-31.0882,33.5167,-30.5349,33.46,-29.9616,33.46C-29.5749,33.46,-29.2316,33.4767,-28.9316,33.51C-28.6316,33.5433,-28.3882,33.5867,-28.2016,33.64L-28.2016,33.36C-28.2016,32.8533,-28.3549,32.4467,-28.6616,32.14C-28.9682,31.8333,-29.5016,31.68,-30.2616,31.68C-30.7682,31.68,-31.2682,31.7167,-31.7616,31.79C-32.2549,31.8633,-32.6816,31.9667,-33.0416,32.1L-33.4216,29.7C-33.2482,29.6467,-33.0316,29.59,-32.7716,29.53C-32.5116,29.47,-32.2282,29.4167,-31.9216,29.37C-31.6149,29.3233,-31.2916,29.2833,-30.9516,29.25C-30.6116,29.2167,-30.2682,29.2,-29.9216,29.2ZM-13.9778,26.14C-13.7378,26.58,-13.4611,27.1233,-13.1478,27.77C-12.8345,28.4167,-12.5078,29.1167,-12.1678,29.87C-11.8278,30.6233,-11.4911,31.3933,-11.1578,32.18C-10.8245,32.9667,-10.5111,33.7067,-10.2178,34.4C-9.92448,33.7067,-9.61115,32.9667,-9.27781,32.18C-8.94448,31.3933,-8.60781,30.6233,-8.26781,29.87C-7.92781,29.1167,-7.60115,28.4167,-7.28781,27.77C-6.97448,27.1233,-6.69781,26.58,-6.45781,26.14L-3.61781,26.14C-3.48448,27.06,-3.36115,28.09,-3.24781,29.23C-3.13448,30.37,-3.03448,31.5567,-2.94781,32.79C-2.86115,34.0233,-2.78115,35.26,-2.70781,36.5C-2.63448,37.74,-2.57115,38.9067,-2.51781,40L-5.55781,40C-5.59781,38.6533,-5.65115,37.1867,-5.71781,35.6C-5.78448,34.0133,-5.88448,32.4133,-6.01781,30.8C-6.25781,31.36,-6.52448,31.98,-6.81781,32.66C-7.11115,33.34,-7.40115,34.02,-7.68781,34.7C-7.97448,35.38,-8.25115,36.03,-8.51781,36.65C-8.78448,37.27,-9.01115,37.8,-9.19781,38.24L-11.3778,38.24C-11.5645,37.8,-11.7911,37.27,-12.0578,36.65C-12.3245,36.03,-12.6011,35.38,-12.8878,34.7C-13.1745,34.02,-13.4645,33.34,-13.7578,32.66C-14.0511,31.98,-14.3178,31.36,-14.5578,30.8C-14.6911,32.4133,-14.7911,34.0133,-14.8578,35.6C-14.9245,37.1867,-14.9778,38.6533,-15.0178,40L-18.0578,40C-18.0045,38.9067,-17.9411,37.74,-17.8678,36.5C-17.7945,35.26,-17.7145,34.0233,-17.6278,32.79C-17.5411,31.5567,-17.4411,30.37,-17.3278,29.23C-17.2145,28.09,-17.0911,27.06,-16.9578,26.14ZM4.09969,37.92C4.39302,37.92,4.67302,37.9133,4.93969,37.9C5.20635,37.8867,5.41969,37.8667,5.57969,37.84L5.57969,35.58C5.45969,35.5533,5.27969,35.5267,5.03969,35.5C4.79969,35.4733,4.57969,35.46,4.37969,35.46C4.09969,35.46,3.83635,35.4767,3.58969,35.51C3.34302,35.5433,3.12635,35.6067,2.93969,35.7C2.75302,35.7933,2.60635,35.92,2.49969,36.08C2.39302,36.24,2.33969,36.44,2.33969,36.68C2.33969,37.1467,2.49635,37.47,2.80969,37.65C3.12302,37.83,3.55302,37.92,4.09969,37.92ZM3.85969,29.2C4.73969,29.2,5.47302,29.3,6.05969,29.5C6.64635,29.7,7.11635,29.9867,7.46969,30.36C7.82302,30.7333,8.07302,31.1867,8.21969,31.72C8.36635,32.2533,8.43969,32.8467,8.43969,33.5L8.43969,39.7C8.01302,39.7933,7.41969,39.9033,6.65969,40.03C5.89969,40.1567,4.97969,40.22,3.89969,40.22C3.21969,40.22,2.60302,40.16,2.04969,40.04C1.49635,39.92,1.01969,39.7233,0.619688,39.45C0.219688,39.1767,-0.0869792,38.82,-0.300313,38.38C-0.513646,37.94,-0.620313,37.4,-0.620313,36.76C-0.620313,36.1467,-0.496979,35.6267,-0.250312,35.2C-0.00364586,34.7733,0.326354,34.4333,0.739687,34.18C1.15302,33.9267,1.62635,33.7433,2.15969,33.63C2.69302,33.5167,3.24635,33.46,3.81969,33.46C4.20635,33.46,4.54969,33.4767,4.84969,33.51C5.14969,33.5433,5.39302,33.5867,5.57969,33.64L5.57969,33.36C5.57969,32.8533,5.42635,32.4467,5.11969,32.14C4.81302,31.8333,4.27969,31.68,3.51969,31.68C3.01302,31.68,2.51302,31.7167,2.01969,31.79C1.52635,31.8633,1.09969,31.9667,0.739687,32.1L0.359687,29.7C0.533021,29.6467,0.749688,29.59,1.00969,29.53C1.26969,29.47,1.55302,29.4167,1.85969,29.37C2.16635,29.3233,2.48969,29.2833,2.82969,29.25C3.16969,29.2167,3.51302,29.2,3.85969,29.2ZM11.0266,26.86L14.0066,26.38L14.0066,29.48L17.5866,29.48L17.5866,31.96L14.0066,31.96L14.0066,35.66C14.0066,36.2867,14.1166,36.7867,14.3366,37.16C14.5566,37.5333,14.9999,37.72,15.6666,37.72C15.9866,37.72,16.3166,37.69,16.6566,37.63C16.9966,37.57,17.3066,37.4867,17.5866,37.38L18.0066,39.7C17.6466,39.8467,17.2466,39.9733,16.8066,40.08C16.3666,40.1867,15.8266,40.24,15.1866,40.24C14.3732,40.24,13.6999,40.13,13.1666,39.91C12.6332,39.69,12.2066,39.3833,11.8866,38.99C11.5666,38.5967,11.3432,38.12,11.2166,37.56C11.0899,37,11.0266,36.38,11.0266,35.7ZM19.0953,34.74C19.0953,33.98,19.2186,33.2633,19.4653,32.59C19.712,31.9167,20.0686,31.33,20.5353,30.83C21.002,30.33,21.5686,29.9333,22.2353,29.64C22.902,29.3467,23.662,29.2,24.5153,29.2C25.0753,29.2,25.5886,29.25,26.0553,29.35C26.522,29.45,26.9753,29.5933,27.4153,29.78L26.7953,32.16C26.5153,32.0533,26.2086,31.96,25.8753,31.88C25.542,31.8,25.1686,31.76,24.7553,31.76C23.8753,31.76,23.2186,32.0333,22.7853,32.58C22.352,33.1267,22.1353,33.8467,22.1353,34.74C22.1353,35.6867,22.3386,36.42,22.7453,36.94C23.152,37.46,23.862,37.72,24.8753,37.72C25.2353,37.72,25.622,37.6867,26.0353,37.62C26.4486,37.5533,26.8286,37.4467,27.1753,37.3L27.5953,39.74C27.2486,39.8867,26.8153,40.0133,26.2953,40.12C25.7753,40.2267,25.202,40.28,24.5753,40.28C23.6153,40.28,22.7886,40.1367,22.0953,39.85C21.402,39.5633,20.832,39.1733,20.3853,38.68C19.9386,38.1867,19.612,37.6033,19.4053,36.93C19.1986,36.2567,19.0953,35.5267,19.0953,34.74ZM29.5797,40L29.5797,24.96L32.5597,24.48L32.5597,29.52C32.7597,29.4533,33.0164,29.39,33.3297,29.33C33.643,29.27,33.9464,29.24,34.2397,29.24C35.093,29.24,35.803,29.3567,36.3697,29.59C36.9364,29.8233,37.3897,30.1533,37.7297,30.58C38.0697,31.0067,38.3097,31.5133,38.4497,32.1C38.5897,32.6867,38.6597,33.34,38.6597,34.06L38.6597,40L35.6797,40L35.6797,34.42C35.6797,33.46,35.5564,32.78,35.3097,32.38C35.063,31.98,34.6064,31.78,33.9397,31.78C33.673,31.78,33.423,31.8033,33.1897,31.85C32.9564,31.8967,32.7464,31.9467,32.5597,32L32.5597,40ZM44.3253,40L41.3453,40L41.3453,29.48L44.3253,29.48ZM44.6053,26.44C44.6053,26.9867,44.4286,27.4167,44.0753,27.73C43.722,28.0433,43.3053,28.2,42.8253,28.2C42.3453,28.2,41.9286,28.0433,41.5753,27.73C41.222,27.4167,41.0453,26.9867,41.0453,26.44C41.0453,25.8933,41.222,25.4633,41.5753,25.15C41.9286,24.8367,42.3453,24.68,42.8253,24.68C43.3053,24.68,43.722,24.8367,44.0753,25.15C44.4286,25.4633,44.6053,25.8933,44.6053,26.44ZM47.1109,29.84C47.6176,29.6933,48.2709,29.5567,49.0709,29.43C49.8709,29.3033,50.7109,29.24,51.5909,29.24C52.4843,29.24,53.2276,29.3567,53.8209,29.59C54.4143,29.8233,54.8843,30.1533,55.2309,30.58C55.5776,31.0067,55.8243,31.5133,55.9709,32.1C56.1176,32.6867,56.1909,33.34,56.1909,34.06L56.1909,40L53.2109,40L53.2109,34.42C53.2109,33.46,53.0843,32.78,52.8309,32.38C52.5776,31.98,52.1043,31.78,51.4109,31.78C51.1976,31.78,50.9709,31.79,50.7309,31.81C50.4909,31.83,50.2776,31.8533,50.0909,31.88L50.0909,40L47.1109,40ZM61.4166,34.4C61.4166,36.0667,62.0899,36.9,63.4366,36.9C63.7432,36.9,64.0299,36.86,64.2966,36.78C64.5632,36.7,64.7899,36.6067,64.9766,36.5L64.9766,31.74C64.8299,31.7133,64.6566,31.69,64.4566,31.67C64.2566,31.65,64.0232,31.64,63.7566,31.64C62.9699,31.64,62.3832,31.9,61.9966,32.42C61.6099,32.94,61.4166,33.6,61.4166,34.4ZM67.9566,38.68C67.9566,40.4,67.5199,41.6767,66.6466,42.51C65.7732,43.3433,64.4232,43.76,62.5966,43.76C61.9566,43.76,61.3166,43.7033,60.6766,43.59C60.0366,43.4767,59.4432,43.3267,58.8966,43.14L59.4166,40.64C59.8832,40.8267,60.3732,40.9733,60.8866,41.08C61.3999,41.1867,61.9832,41.24,62.6366,41.24C63.4899,41.24,64.0932,41.0533,64.4466,40.68C64.7999,40.3067,64.9766,39.8267,64.9766,39.24L64.9766,38.86C64.6566,39.0067,64.3266,39.1167,63.9866,39.19C63.6466,39.2633,63.2766,39.3,62.8766,39.3C61.4232,39.3,60.3099,38.87,59.5366,38.01C58.7632,37.15,58.3766,35.9467,58.3766,34.4C58.3766,33.6267,58.4966,32.9233,58.7366,32.29C58.9766,31.6567,59.3266,31.1133,59.7866,30.66C60.2466,30.2067,60.8099,29.8567,61.4766,29.61C62.1432,29.3633,62.8966,29.24,63.7366,29.24C64.0966,29.24,64.4666,29.2567,64.8466,29.29C65.2266,29.3233,65.6032,29.3667,65.9766,29.42C66.3499,29.4733,66.7066,29.5367,67.0466,29.61C67.3866,29.6833,67.6899,29.76,67.9566,29.84Z" transform="translate(100,152)"/>
</svg>
