<?xml version="1.0" encoding="UTF-8" standalone="no"?>
<!-- Created with Keyshape -->
<svg xmlns="http://www.w3.org/2000/svg" viewBox="0 0 425 69" text-rendering="geometricPrecision" shape-rendering="geometricPrecision" style="white-space: pre;">
    <style>
@keyframes yt_o { 0% { opacity: 1; } 31.6667% { opacity: 1; } 33.3333% { opacity: 0; } 98.3333% { opacity: 0; } 100% { opacity: 1; } }
@keyframes tw_o { 0% { opacity: 0; } 31.6667% { opacity: 0; } 33.3333% { opacity: 1; } 65% { opacity: 1; } 66.6667% { opacity: 0; } 100% { opacity: 0; } }
@keyframes a0_o { 0% { opacity: 0; } 65% { opacity: 0; } 66.6667% { opacity: 1; } 98.3333% { opacity: 1; } 100% { opacity: 0; } }
    </style>
    <g transform="translate(212.337,34.528) scale(0.514804,0.514804) translate(-412.461,-66.9615)" style="white-space: pre;">
        <a href='www.facebook.com/instanano'>
        <text fill="#2e2f2e" font-size="50" font-family="'Arial Black'" letter-spacing="0" word-spacing="0" stroke="none" font-weight="900" transform="translate(0,95.6645)" style="line-height: 26.4px; white-space: pre;">www.             .com/InstaNANO</text>
            </a>
        <g id="yt" opacity="1" transform="translate(268.95,66.9615) translate(-94.645,-66.9613)" style="animation: 6s linear infinite both yt_o;">
            <path fill="#e20202" opacity="1" d="M64.8065,37.4751C67.4603,36.9442,70.1759,36.7519,72.8837,36.7597C105.977,36.7673,139.07,36.7519,172.172,36.7673C179.68,36.7212,187.211,39.0136,193.296,43.4369C202.566,49.9063,208.15,61.0529,208.303,72.3071C208.327,89.2385,208.297,106.177,208.319,123.116C208.174,132.163,204.658,141.256,198.173,147.648C191.634,154.442,182.381,158.61,172.918,158.649C139.825,158.703,106.739,158.649,73.6529,158.679C68.2682,158.733,62.7603,158.08,57.8216,155.818C45.0826,150.748,36.3054,137.579,36.0054,123.932C35.9824,106.216,36.013,88.4924,35.99,70.7762C36.4592,54.8142,49.0982,40.2521,64.8065,37.4751M98.5154,74.7303C98.469,90.0771,98.4613,105.431,98.5154,120.779C98.323,122.102,99.5308,122.679,100.562,123.047C114.939,116.124,129.355,109.262,143.763,102.401C145.479,101.539,147.317,100.87,148.894,99.7466C150.187,98.4543,148.871,96.8004,147.493,96.3234C131.794,88.4385,116.162,80.4228,100.469,72.5148C99.6923,73.0995,98.3462,73.5072,98.5154,74.7303Z" transform="translate(-27.5095,-36.7595)"/>
        </g>
        <g id="tw" opacity="0" transform="translate(268.95,66.9615) translate(-80.5078,-66.9614)" style="animation: 6s linear infinite both tw_o;">
            <path d="M111.601,25.6154C122.561,12.6351,143.48,10.0534,157.324,19.8336C159.452,21.1424,161.243,23.4436,163.868,23.6306C169.671,22.631,175.115,20.1356,180.293,17.3957C181.637,16.6838,183.155,16.4609,184.643,16.2595C184.248,22.8396,179.861,28.1755,175.834,33.0368C179.717,32.2674,183.306,30.5199,187.081,29.4196C188.714,28.8587,189.663,31.1455,188.599,32.2386C185.19,37.517,180.882,42.2202,176.071,46.2617C174.029,47.8222,172.497,50.1306,172.749,52.8058C172.555,73.4305,165.515,93.8682,153.261,110.43C141.999,125.762,125.905,137.527,107.725,143.237C81.9587,151.391,52.6397,148.738,29.3398,134.794C27.2256,133.802,27.8009,130.156,30.1812,130.055C35.2151,129.695,40.3066,129.976,45.2902,129.005C54.2937,127.588,62.8154,124,70.4957,119.146C61.7583,117.283,53.5027,112.609,48.2386,105.281C46.0021,102.03,43.744,98.5353,43.1256,94.5801C43.2119,94.2925,43.3917,93.7172,43.478,93.4295C46.1747,92.6816,49.0225,93.523,51.7624,93.6596C39.0625,87.6908,30.3107,73.826,31.6698,59.6735C35.2367,60.22,38.444,61.9387,41.8455,63.039C38.2858,58.7674,34.9778,54.1505,33.3957,48.7499C31.8999,43.4283,30.9866,37.7615,31.9503,32.2602C33.0434,25.8383,35.5603,22.9618,39.5155,21.164C40.7837,22.3897,47.7856,29.434,51.1151,32.2386C65.4978,44.9097,84.1448,52.8777,103.324,53.8773C102.461,43.8742,104.719,33.2166,111.601,25.6154Z" fill="#8297ec" opacity="1" transform="translate(-28.0336,-13.9027)"/>
        </g>
        <path d="M15.0204,32.7335C15.1019,24.2656,22.857,16.8262,31.3031,17.0221C60.8918,16.9623,141.463,17.0004,171.052,17.0058C177.913,16.6956,184.613,21.3486,186.839,27.8247C187.682,30.0941,187.901,32.543,187.906,34.9484C187.879,64.1725,187.932,93.3913,187.879,122.615C187.873,128.335,184.629,133.842,179.639,136.629C176.722,138.327,173.31,138.958,169.968,138.909C161.768,138.871,128.075,138.936,119.879,138.876C119.852,124.378,119.885,109.875,119.944,95.3778C124.858,95.3013,129.773,95.4269,134.687,95.3395C136.107,95.4642,137.468,94.4309,137.587,92.9834C138.219,88.3355,138.757,83.6661,139.242,79.0022C139.503,77.4893,138.311,75.9166,136.739,75.9438C131.123,75.8022,125.501,75.9873,119.879,75.8731C119.825,71.6554,119.858,67.4432,119.841,63.2256C119.858,60.7005,120.554,57.7018,123.03,56.4883C127.28,54.3114,132.211,55.6665,136.755,55.1223C138.034,54.9319,138.757,53.5985,138.687,52.3904C138.768,48.9292,138.693,45.468,138.72,42.0014C138.801,40.532,138.464,38.5456,136.739,38.2137C133.157,37.8871,129.544,38.1756,125.947,38.0776C119.868,37.9851,113.408,39.2205,108.631,43.215C103.547,47.4054,101.066,54.0448,100.886,60.5046C100.788,65.6255,100.908,70.7465,100.837,75.8731C97.0603,75.9873,93.2835,75.8022,89.5121,75.9383C87.8795,75.8839,86.7149,77.4622,86.8891,79.0131C86.8944,83.541,86.8564,88.0797,86.9653,92.6074C86.8781,94.044,88.0863,95.2412,89.4958,95.2849C93.2944,95.497,97.1039,95.274,100.908,95.3723C100.93,109.875,100.864,124.378,100.848,138.882C86.5353,138.926,46.726,138.882,32.4133,138.904C27.9399,138.979,23.3631,137.494,20.1196,134.343C16.6965,131.257,14.955,126.615,15.0149,122.055C15.0204,92.281,15.004,62.5073,15.0204,32.7335Z" fill="#534394" opacity="0" transform="translate(167.77,-16.9889)" style="animation: 6s linear infinite both a0_o;"/>
    </g>
</svg>
