<svg xmlns="http://www.w3.org/2000/svg" viewBox="0 0 500 500"><defs><clipPath id="ClipPath-1"><path d="M34 210v-16h-8c-4.4 0-8 3.6-8 8c0 4.4 3.6 8 8 8"/><path d="M34 242v-16h-8c-4.4 0-8 3.6-8 8c0 4.4 3.6 8 8 8"/><ellipse cx="42" cy="170" rx="8" ry="8"/><rect x="34" y="194" width="16" height="16"/><path d="M34 226v16h16v-8c0-4.4-3.6-8-8-8"/><rect x="34" y="242" width="16" height="16"/><path d="M50 274v-16h-16v8c0 4.4 3.6 8 8 8"/><path d="M34 306h16v-16h-8c-4.4 0-8 3.6-8 8"/><rect x="34" y="306" width="16" height="16"/><rect x="34" y="322" width="16" height="16"/><path d="M50 354v-16h-16v8c0 4.4 3.6 8 8 8"/><ellipse cx="58" cy="154" rx="8" ry="8"/><rect x="50" y="194" width="16" height="16"/><path d="M50 258v16h8c4.4 0 8-3.6 8-8c0-4.4-3.6-8-8-8"/><path d="M50 290v16h16v-8c0-4.4-3.6-8-8-8"/><rect x="50" y="306" width="16" height="16"/><rect x="50" y="322" width="16" height="16"/><rect x="50" y="338" width="16" height="16"/><ellipse cx="74" cy="170" rx="8" ry="8"/><rect x="66" y="194" width="16" height="16"/><path d="M82 210h-16v8c0 4.4 3.6 8 8 8c4.4 0 8-3.6 8-8"/><path d="M82 258v-16h-8c-4.4 0-8 3.6-8 8c0 4.4 3.6 8 8 8"/><path d="M66 306v16h8c4.4 0 8-3.6 8-8c0-4.4-3.6-8-8-8"/><path d="M66 338v16h8c4.4 0 8-3.6 8-8c0-4.4-3.6-8-8-8"/><path d="M98 162v-16h-8c-4.4 0-8 3.6-8 8c0 4.4 3.6 8 8 8"/><path d="M82 194v16h8c4.4 0 8-3.6 8-8c0-4.4-3.6-8-8-8"/><path d="M82 242v16h8c4.4 0 8-3.6 8-8c0-4.4-3.6-8-8-8"/><ellipse cx="90" cy="298" rx="8" ry="8"/><rect x="98" y="146" width="16" height="16"/><path d="M114 194v-16h-8c-4.4 0-8 3.6-8 8c0 4.4 3.6 8 8 8"/><path d="M98 322h16v-16h-8c-4.4 0-8 3.6-8 8"/><rect x="98" y="322" width="16" height="16"/><path d="M114 354v-16h-16v8c0 4.4 3.6 8 8 8"/><path d="M114 146v16h8c4.4 0 8-3.6 8-8c0-4.4-3.6-8-8-8"/><rect x="114" y="178" width="16" height="16"/><ellipse cx="122" cy="218" rx="8" ry="8"/><ellipse cx="122" cy="250" rx="8" ry="8"/><path d="M130 290v-16h-8c-4.4 0-8 3.6-8 8c0 4.4 3.6 8 8 8"/><rect x="114" y="306" width="16" height="16"/><rect x="114" y="338" width="16" height="16"/><path d="M130 178h16v-8c0-4.4-3.6-8-8-8c-4.4 0-8 3.6-8 8"/><rect x="130" y="178" width="16" height="16"/><path d="M130 274h16v-8c0-4.4-3.6-8-8-8c-4.4 0-8 3.6-8 8"/><rect x="130" y="274" width="16" height="16"/><rect x="130" y="290" width="16" height="16"/><rect x="130" y="306" width="16" height="16"/><rect x="130" y="322" width="16" height="16"/><rect x="130" y="338" width="16" height="16"/><path d="M162 50v-16h-8c-4.4 0-8 3.6-8 8c0 4.4 3.6 8 8 8"/><ellipse cx="154" cy="90" rx="8" ry="8"/><ellipse cx="154" cy="122" rx="8" ry="8"/><ellipse cx="154" cy="154" rx="8" ry="8"/><path d="M146 178v16h8c4.4 0 8-3.6 8-8c0-4.4-3.6-8-8-8"/><path d="M146 226h16v-16h-8c-4.4 0-8 3.6-8 8"/><rect x="146" y="226" width="16" height="16"/><path d="M162 258v-16h-16v8c0 4.4 3.6 8 8 8"/><rect x="146" y="274" width="16" height="16"/><rect x="146" y="306" width="16" height="16"/><path d="M146 338v16h16v-8c0-4.4-3.6-8-8-8"/><path d="M162 370v-16h-16v8c0 4.4 3.6 8 8 8"/><path d="M146 402h16v-16h-8c-4.4 0-8 3.6-8 8"/><path d="M162 418v-16h-16v8c0 4.4 3.6 8 8 8"/><ellipse cx="154" cy="442" rx="8" ry="8"/><path d="M162 34h16v-16h-8c-4.4 0-8 3.6-8 8"/><path d="M178 34h-16v16h8c4.4 0 8-3.6 8-8"/><ellipse cx="170" cy="74" rx="8" ry="8"/><ellipse cx="170" cy="138" rx="8" ry="8"/><path d="M162 210h16v-8c0-4.4-3.6-8-8-8c-4.4 0-8 3.6-8 8"/><rect x="162" y="210" width="16" height="16"/><rect x="162" y="226" width="16" height="16"/><rect x="162" y="242" width="16" height="16"/><rect x="162" y="258" width="16" height="16"/><path d="M178 274h-16v16h8c4.4 0 8-3.6 8-8"/><rect x="162" y="306" width="16" height="16"/><rect x="162" y="354" width="16" height="16"/><rect x="162" y="370" width="16" height="16"/><rect x="162" y="386" width="16" height="16"/><rect x="162" y="402" width="16" height="16"/><path d="M162 466h16v-8c0-4.4-3.6-8-8-8c-4.4 0-8 3.6-8 8"/><path d="M178 482v-16h-16v8c0 4.4 3.6 8 8 8"/><rect x="178" y="18" width="16" height="16"/><ellipse cx="186" cy="122" rx="8" ry="8"/><ellipse cx="186" cy="186" rx="8" ry="8"/><path d="M178 210v16h8c4.4 0 8-3.6 8-8c0-4.4-3.6-8-8-8"/><rect x="178" y="258" width="16" height="16"/><path d="M178 306h16v-16h-8c-4.4 0-8 3.6-8 8"/><path d="M194 306h-16v16h8c4.4 0 8-3.6 8-8"/><path d="M178 354h16v-8c0-4.4-3.6-8-8-8c-4.4 0-8 3.6-8 8"/><rect x="178" y="354" width="16" height="16"/><rect x="178" y="402" width="16" height="16"/><ellipse cx="186" cy="442" rx="8" ry="8"/><rect x="178" y="466" width="16" height="16"/><rect x="194" y="18" width="16" height="16"/><path d="M194 66h16v-8c0-4.4-3.6-8-8-8c-4.4 0-8 3.6-8 8"/><rect x="194" y="66" width="16" height="16"/><rect x="194" y="82" width="16" height="16"/><path d="M210 114v-16h-16v8c0 4.4 3.6 8 8 8"/><path d="M194 162h16v-8c0-4.4-3.6-8-8-8c-4.4 0-8 3.6-8 8"/><path d="M210 178v-16h-16v8c0 4.4 3.6 8 8 8"/><path d="M194 242h16v-16h-8c-4.4 0-8 3.6-8 8"/><rect x="194" y="242" width="16" height="16"/><rect x="194" y="258" width="16" height="16"/><rect x="194" y="274" width="16" height="16"/><rect x="194" y="290" width="16" height="16"/><path d="M194 354v16h8c4.4 0 8-3.6 8-8c0-4.4-3.6-8-8-8"/><path d="M194 402v16h16v-8c0-4.4-3.6-8-8-8"/><path d="M210 434v-16h-16v8c0 4.4 3.6 8 8 8"/><path d="M194 466h16v-8c0-4.4-3.6-8-8-8c-4.4 0-8 3.6-8 8"/><rect x="194" y="466" width="16" height="16"/><rect x="210" y="18" width="16" height="16"/><path d="M226 50v-16h-16v8c0 4.4 3.6 8 8 8"/><rect x="210" y="66" width="16" height="16"/><rect x="210" y="82" width="16" height="16"/><rect x="210" y="98" width="16" height="16"/><path d="M226 114h-16v8c0 4.4 3.6 8 8 8c4.4 0 8-3.6 8-8"/><path d="M210 162v16h16v-8c0-4.4-3.6-8-8-8"/><rect x="210" y="178" width="16" height="16"/><rect x="210" y="194" width="16" height="16"/><rect x="210" y="210" width="16" height="16"/><rect x="210" y="226" width="16" height="16"/><rect x="210" y="242" width="16" height="16"/><rect x="210" y="258" width="16" height="16"/><rect x="210" y="290" width="16" height="16"/><ellipse cx="218" cy="346" rx="8" ry="8"/><ellipse cx="218" cy="394" rx="8" ry="8"/><path d="M210 418v16h8c4.4 0 8-3.6 8-8c0-4.4-3.6-8-8-8"/><rect x="210" y="466" width="16" height="16"/><path d="M226 18v16h16v-8c0-4.4-3.6-8-8-8"/><path d="M242 34h-16v16h8c4.4 0 8-3.6 8-8"/><path d="M226 66v16h8c4.4 0 8-3.6 8-8c0-4.4-3.6-8-8-8"/><path d="M226 98v16h8c4.4 0 8-3.6 8-8c0-4.4-3.6-8-8-8"/><path d="M226 178v16h8c4.4 0 8-3.6 8-8c0-4.4-3.6-8-8-8"/><rect x="226" y="210" width="16" height="16"/><path d="M226 258v16h16v-8c0-4.4-3.6-8-8-8"/><rect x="226" y="274" width="16" height="16"/><rect x="226" y="290" width="16" height="16"/><path d="M242 322v-16h-16v8c0 4.4 3.6 8 8 8"/><path d="M242 386v-16h-8c-4.4 0-8 3.6-8 8c0 4.4 3.6 8 8 8"/><path d="M242 418v-16h-8c-4.4 0-8 3.6-8 8c0 4.4 3.6 8 8 8"/><ellipse cx="234" cy="442" rx="8" ry="8"/><rect x="226" y="466" width="16" height="16"/><path d="M242 130h16v-8c0-4.4-3.6-8-8-8c-4.4 0-8 3.6-8 8"/><rect x="242" y="130" width="16" height="16"/><path d="M258 146h-16v8c0 4.4 3.6 8 8 8c4.4 0 8-3.6 8-8"/><rect x="242" y="210" width="16" height="16"/><path d="M242 306v16h8c4.4 0 8-3.6 8-8c0-4.4-3.6-8-8-8"/><ellipse cx="250" cy="346" rx="8" ry="8"/><path d="M242 370v16h8c4.4 0 8-3.6 8-8c0-4.4-3.6-8-8-8"/><path d="M242 402v16h8c4.4 0 8-3.6 8-8c0-4.4-3.6-8-8-8"/><path d="M242 466h16v-8c0-4.4-3.6-8-8-8c-4.4 0-8 3.6-8 8"/><path d="M258 466h-16v16h8c4.4 0 8-3.6 8-8"/><path d="M258 34h16v-8c0-4.4-3.6-8-8-8c-4.4 0-8 3.6-8 8"/><rect x="258" y="34" width="16" height="16"/><rect x="258" y="50" width="16" height="16"/><path d="M274 66h-16v8c0 4.4 3.6 8 8 8c4.4 0 8-3.6 8-8"/><path d="M274 114v-16h-8c-4.4 0-8 3.6-8 8c0 4.4 3.6 8 8 8"/><path d="M258 194h16v-16h-8c-4.4 0-8 3.6-8 8"/><rect x="258" y="194" width="16" height="16"/><rect x="258" y="210" width="16" height="16"/><path d="M274 226h-16v8c0 4.4 3.6 8 8 8c4.4 0 8-3.6 8-8"/><path d="M274 290v-16h-8c-4.4 0-8 3.6-8 8c0 4.4 3.6 8 8 8"/><path d="M274 370v-16h-8c-4.4 0-8 3.6-8 8c0 4.4 3.6 8 8 8"/><ellipse cx="266" cy="394" rx="8" ry="8"/><ellipse cx="266" cy="426" rx="8" ry="8"/><rect x="274" y="50" width="16" height="16"/><rect x="274" y="98" width="16" height="16"/><path d="M290 114h-16v8c0 4.4 3.6 8 8 8c4.4 0 8-3.6 8-8"/><path d="M274 178h16v-16h-8c-4.4 0-8 3.6-8 8"/><rect x="274" y="178" width="16" height="16"/><path d="M274 210v16h8c4.4 0 8-3.6 8-8c0-4.4-3.6-8-8-8"/><path d="M274 274v16h8c4.4 0 8-3.6 8-8c0-4.4-3.6-8-8-8"/><path d="M274 354h16v-8c0-4.4-3.6-8-8-8c-4.4 0-8 3.6-8 8"/><path d="M290 354h-16v16h8c4.4 0 8-3.6 8-8"/><path d="M274 466h16v-8c0-4.4-3.6-8-8-8c-4.4 0-8 3.6-8 8"/><path d="M290 482v-16h-16v8c0 4.4 3.6 8 8 8"/><ellipse cx="298" cy="26" rx="8" ry="8"/><path d="M290 50v16h8c4.4 0 8-3.6 8-8c0-4.4-3.6-8-8-8"/><path d="M290 98h16v-8c0-4.4-3.6-8-8-8c-4.4 0-8 3.6-8 8"/><path d="M306 98h-16v16h8c4.4 0 8-3.6 8-8"/><path d="M290 162h16v-8c0-4.4-3.6-8-8-8c-4.4 0-8 3.6-8 8"/><rect x="290" y="162" width="16" height="16"/><rect x="290" y="178" width="16" height="16"/><path d="M306 210v-16h-16v8c0 4.4 3.6 8 8 8"/><path d="M290 242h16v-16h-8c-4.4 0-8 3.6-8 8"/><path d="M306 242h-16v8c0 4.4 3.6 8 8 8c4.4 0 8-3.6 8-8"/><ellipse cx="298" cy="314" rx="8" ry="8"/><ellipse cx="298" cy="378" rx="8" ry="8"/><path d="M290 418h16v-8c0-4.4-3.6-8-8-8c-4.4 0-8 3.6-8 8"/><rect x="290" y="418" width="16" height="16"/><path d="M306 450v-16h-16v8c0 4.4 3.6 8 8 8"/><rect x="290" y="466" width="16" height="16"/><ellipse cx="314" cy="122" rx="8" ry="8"/><path d="M306 178v16h16v-8c0-4.4-3.6-8-8-8"/><rect x="306" y="194" width="16" height="16"/><rect x="306" y="210" width="16" height="16"/><rect x="306" y="226" width="16" height="16"/><path d="M322 274v-16h-8c-4.4 0-8 3.6-8 8c0 4.4 3.6 8 8 8"/><path d="M322 306v-16h-8c-4.4 0-8 3.6-8 8c0 4.4 3.6 8 8 8"/><rect x="306" y="418" width="16" height="16"/><path d="M322 434h-16v16h8c4.4 0 8-3.6 8-8"/><rect x="306" y="466" width="16" height="16"/><ellipse cx="330" cy="90" rx="8" ry="8"/><path d="M322 146h16v-8c0-4.4-3.6-8-8-8c-4.4 0-8 3.6-8 8"/><rect x="322" y="146" width="16" height="16"/><path d="M338 178v-16h-16v8c0 4.4 3.6 8 8 8"/><rect x="322" y="194" width="16" height="16"/><rect x="322" y="210" width="16" height="16"/><path d="M338 226h-16v16h8c4.4 0 8-3.6 8-8"/><path d="M322 258v16h16v-8c0-4.4-3.6-8-8-8"/><rect x="322" y="274" width="16" height="16"/><rect x="322" y="290" width="16" height="16"/><rect x="322" y="306" width="16" height="16"/><path d="M338 338v-16h-16v8c0 4.4 3.6 8 8 8"/><path d="M322 418h16v-16h-8c-4.4 0-8 3.6-8 8"/><rect x="322" y="418" width="16" height="16"/><path d="M322 466h16v-16h-8c-4.4 0-8 3.6-8 8"/><rect x="322" y="466" width="16" height="16"/><path d="M338 34h16v-8c0-4.4-3.6-8-8-8c-4.4 0-8 3.6-8 8"/><rect x="338" y="34" width="16" height="16"/><rect x="338" y="50" width="16" height="16"/><path d="M354 66h-16v8c0 4.4 3.6 8 8 8c4.4 0 8-3.6 8-8"/><ellipse cx="346" cy="122" rx="8" ry="8"/><rect x="338" y="146" width="16" height="16"/><rect x="338" y="162" width="16" height="16"/><rect x="338" y="178" width="16" height="16"/><rect x="338" y="194" width="16" height="16"/><ellipse cx="346" cy="250" rx="8" ry="8"/><path d="M338 290v16h8c4.4 0 8-3.6 8-8c0-4.4-3.6-8-8-8"/><rect x="338" y="322" width="16" height="16"/><rect x="338" y="338" width="16" height="16"/><rect x="338" y="354" width="16" height="16"/><rect x="338" y="370" width="16" height="16"/><rect x="338" y="386" width="16" height="16"/><rect x="338" y="402" width="16" height="16"/><path d="M354 418h-16v16h8c4.4 0 8-3.6 8-8"/><path d="M338 450v16h16v-8c0-4.4-3.6-8-8-8"/><rect x="338" y="466" width="16" height="16"/><path d="M354 146v16h8c4.4 0 8-3.6 8-8c0-4.4-3.6-8-8-8"/><path d="M354 194v16h8c4.4 0 8-3.6 8-8c0-4.4-3.6-8-8-8"/><ellipse cx="362" cy="234" rx="8" ry="8"/><path d="M354 274h16v-16h-8c-4.4 0-8 3.6-8 8"/><path d="M370 274h-16v8c0 4.4 3.6 8 8 8c4.4 0 8-3.6 8-8"/><path d="M354 322h16v-8c0-4.4-3.6-8-8-8c-4.4 0-8 3.6-8 8"/><rect x="354" y="322" width="16" height="16"/><rect x="354" y="338" width="16" height="16"/><rect x="354" y="402" width="16" height="16"/><ellipse cx="362" cy="442" rx="8" ry="8"/><rect x="354" y="466" width="16" height="16"/><path d="M370 178h16v-8c0-4.4-3.6-8-8-8c-4.4 0-8 3.6-8 8"/><path d="M386 178h-16v8c0 4.4 3.6 8 8 8c4.4 0 8-3.6 8-8"/><rect x="370" y="258" width="16" height="16"/><path d="M386 306v-16h-8c-4.4 0-8 3.6-8 8c0 4.4 3.6 8 8 8"/><rect x="370" y="322" width="16" height="16"/><rect x="370" y="338" width="16" height="16"/><ellipse cx="378" cy="378" rx="8" ry="8"/><rect x="370" y="402" width="16" height="16"/><path d="M370 466v16h8c4.4 0 8-3.6 8-8c0-4.4-3.6-8-8-8"/><path d="M386 226h16v-16h-8c-4.4 0-8 3.6-8 8"/><path d="M402 226h-16v8c0 4.4 3.6 8 8 8c4.4 0 8-3.6 8-8"/><path d="M386 258v16h16v-8c0-4.4-3.6-8-8-8"/><rect x="386" y="274" width="16" height="16"/><rect x="386" y="290" width="16" height="16"/><rect x="386" y="306" width="16" height="16"/><rect x="386" y="322" width="16" height="16"/><rect x="386" y="338" width="16" height="16"/><rect x="386" y="402" width="16" height="16"/><path d="M402 418h-16v8c0 4.4 3.6 8 8 8c4.4 0 8-3.6 8-8"/><path d="M402 466v-16h-8c-4.4 0-8 3.6-8 8c0 4.4 3.6 8 8 8"/><path d="M402 162h16v-8c0-4.4-3.6-8-8-8c-4.4 0-8 3.6-8 8"/><path d="M418 162h-16v8c0 4.4 3.6 8 8 8c4.4 0 8-3.6 8-8"/><path d="M402 210h16v-16h-8c-4.4 0-8 3.6-8 8"/><path d="M418 210h-16v16h8c4.4 0 8-3.6 8-8"/><path d="M402 306v16h16v-8c0-4.4-3.6-8-8-8"/><rect x="402" y="322" width="16" height="16"/><rect x="402" y="338" width="16" height="16"/><rect x="402" y="354" width="16" height="16"/><rect x="402" y="370" width="16" height="16"/><rect x="402" y="386" width="16" height="16"/><path d="M418 402h-16v16h8c4.4 0 8-3.6 8-8"/><rect x="402" y="450" width="16" height="16"/><path d="M418 466h-16v8c0 4.4 3.6 8 8 8c4.4 0 8-3.6 8-8"/><path d="M418 194v16h8c4.4 0 8-3.6 8-8c0-4.4-3.6-8-8-8"/><path d="M434 242v-16h-8c-4.4 0-8 3.6-8 8c0 4.4 3.6 8 8 8"/><path d="M418 290h16v-16h-8c-4.4 0-8 3.6-8 8"/><path d="M434 290h-16v8c0 4.4 3.6 8 8 8c4.4 0 8-3.6 8-8"/><path d="M418 386v16h8c4.4 0 8-3.6 8-8c0-4.4-3.6-8-8-8"/><rect x="418" y="450" width="16" height="16"/><path d="M450 194v-16h-8c-4.4 0-8 3.6-8 8c0 4.4 3.6 8 8 8"/><path d="M434 226v16h16v-8c0-4.4-3.6-8-8-8"/><path d="M450 258v-16h-16v8c0 4.4 3.6 8 8 8"/><path d="M434 274v16h8c4.4 0 8-3.6 8-8c0-4.4-3.6-8-8-8"/><path d="M434 322h16v-8c0-4.4-3.6-8-8-8c-4.4 0-8 3.6-8 8"/><rect x="434" y="322" width="16" height="16"/><rect x="434" y="338" width="16" height="16"/><path d="M450 354h-16v8c0 4.4 3.6 8 8 8c4.4 0 8-3.6 8-8"/><path d="M434 434h16v-16h-8c-4.4 0-8 3.6-8 8"/><rect x="434" y="434" width="16" height="16"/><rect x="434" y="450" width="16" height="16"/><path d="M450 482v-16h-16v8c0 4.4 3.6 8 8 8"/><path d="M450 162h16v-8c0-4.4-3.6-8-8-8c-4.4 0-8 3.6-8 8"/><rect x="450" y="162" width="16" height="16"/><rect x="450" y="178" width="16" height="16"/><rect x="450" y="242" width="16" height="16"/><path d="M466 306v-16h-8c-4.4 0-8 3.6-8 8c0 4.4 3.6 8 8 8"/><path d="M450 322v16h16v-8c0-4.4-3.6-8-8-8"/><rect x="450" y="338" width="16" height="16"/><path d="M450 386h16v-8c0-4.4-3.6-8-8-8c-4.4 0-8 3.6-8 8"/><path d="M466 386h-16v8c0 4.4 3.6 8 8 8c4.4 0 8-3.6 8-8"/><rect x="450" y="418" width="16" height="16"/><rect x="450" y="450" width="16" height="16"/><path d="M466 466h-16v16h8c4.4 0 8-3.6 8-8"/><path d="M466 178v16h16v-8c0-4.4-3.6-8-8-8"/><rect x="466" y="194" width="16" height="16"/><path d="M482 210h-16v8c0 4.4 3.6 8 8 8c4.4 0 8-3.6 8-8"/><path d="M466 242v16h16v-8c0-4.4-3.6-8-8-8"/><path d="M482 258h-16v8c0 4.4 3.6 8 8 8c4.4 0 8-3.6 8-8"/><path d="M466 290v16h8c4.4 0 8-3.6 8-8c0-4.4-3.6-8-8-8"/><path d="M466 338v16h16v-8c0-4.4-3.6-8-8-8"/><path d="M482 354h-16v8c0 4.4 3.6 8 8 8c4.4 0 8-3.6 8-8"/><path d="M466 418h16v-8c0-4.4-3.6-8-8-8c-4.4 0-8 3.6-8 8"/><path d="M482 418h-16v16h8c4.4 0 8-3.6 8-8"/><path d="M466 450v16h8c4.4 0 8-3.6 8-8c0-4.4-3.6-8-8-8"/></clipPath><clipPath id="ClipPath-2"><path clip-rule="evenodd" d="M0 40v32c0 22.1 17.9 40 40 40h32c22.1 0 40-17.9 40-40v-32c0-22.1-17.9-40-40-40h-32c-22.1 0-40 17.9-40 40m40-24h32c13.3 0 24 10.7 24 24v32c0 13.3-10.7 24-24 24h-32c-13.3 0-24-10.7-24-24v-32c0-13.3 10.7-24 24-24"/></clipPath><clipPath id="ClipPath-3"><ellipse cx="24" cy="24" rx="24" ry="24"/></clipPath><clipPath id="ClipPath-4"><path clip-rule="evenodd" d="M72 0h-32c-22.1 0-40 17.9-40 40v32c0 22.1 17.9 40 40 40h32c22.1 0 40-17.9 40-40v-32c0-22.1-17.9-40-40-40m24 40v32c0 13.3-10.7 24-24 24h-32c-13.3 0-24-10.7-24-24v-32c0-13.3 10.7-24 24-24h32c13.3 0 24 10.7 24 24"/></clipPath><clipPath id="ClipPath-5"><ellipse rx="24" ry="24" transform="translate(98,-402) rotate(90) translate(426,74)"/></clipPath><clipPath id="ClipPath-6"><path clip-rule="evenodd" d="M40 112h32c22.1 0 40-17.9 40-40v-32c0-22.1-17.9-40-40-40h-32c-22.1 0-40 17.9-40 40v32c0 22.1 17.9 40 40 40m-24-40v-32c0-13.3 10.7-24 24-24h32c13.3 0 24 10.7 24 24v32c0 13.3-10.7 24-24 24h-32c-13.3 0-24-10.7-24-24"/></clipPath><clipPath id="ClipPath-7"><ellipse rx="24" ry="24" transform="translate(-402,98) rotate(-90) translate(74,426)"/></clipPath></defs><rect height="500" width="500" clip-path="url(#ClipPath-1)"/><rect height="112" width="112" clip-path="url(#ClipPath-2)" transform="translate(18,18)"/><rect height="48" width="48" clip-path="url(#ClipPath-3)" transform="translate(50,50)"/><rect height="112" width="112" clip-path="url(#ClipPath-4)" transform="translate(370,18)"/><rect height="48" width="48" clip-path="url(#ClipPath-5)" transform="translate(402,50)"/><rect height="112" width="112" clip-path="url(#ClipPath-6)" transform="translate(18,370)"/><rect height="48" width="48" clip-path="url(#ClipPath-7)" transform="translate(50,402)"/></svg>